<?xml version="1.0" encoding="UTF-8"?>
<svg width="700pt" height="700pt" version="1.1" viewBox="0 0 700 700" xmlns="http://www.w3.org/2000/svg" xmlns:xlink="http://www.w3.org/1999/xlink">
 <g>
  <path d="m162.29 92.914c0 4.1641 0 8.3398-0.003906 12.52-0.003906 10.25-0.011719 20.855 0.050781 31.277 0.035157 6.1484 0.23828 12.133 0.61328 17.797 0.015626 0.23438 0.035157 0.44141 0.050782 0.62891 0.14453-0.082031 0.29688-0.16797 0.46484-0.26953 7.2617-4.3594 15.395-6.4062 24.133-6.0898 17.711 0.62891 32.684 16.332 32.691 34.301 0.011719 18.621-14.707 34.246-32.812 34.844-8.7148 0.28516-16.836-1.7773-24.102-6.1484-0.12891-0.082032-0.25781-0.15234-0.375-0.22266-0.015625 0.16406-0.039063 0.33984-0.058594 0.53125-0.28516 2.9766-0.58984 6.4883-0.59375 9.9414-0.050781 12.922-0.046875 26.07-0.046875 38.773l-0.003906 13.613h0.65234c4.5078 0 9.0195-0.003906 13.527-0.003906 4.5078-0.003906 9.0234-0.011719 13.535-0.011719 7.3086 0 14.617 0.011719 21.934 0.050781 5.6602 0.023438 10.273 0.25781 14.512 0.72266 4.7422 0.51953 7.9688 2.2617 9.5625 5.1758 1.6523 3.0039 1.3359 6.8477-0.91406 11.434-1.6172 3.2852-3.8633 8.2266-4.6914 13.121-1.7031 10.066 1.7461 18.02 10.262 23.637 8.4531 5.5781 17.5 5.4727 26.035-0.24609 8.043-5.3945 11.371-13.457 9.6016-23.305-0.75391-4.207-2.6719-8.5039-4.5273-12.664l-0.79297-1.7852c-1.7031-3.8555-1.8711-7.1562-0.51953-9.8242 1.2969-2.543 3.8203-4.2344 7.5117-5.0352 3.5039-0.76562 7.293-1.168 11.27-1.1953 9.8516-0.0625 20.645-0.097657 32.992-0.097657 7.4375 0 14.887 0.011719 22.324 0.027344-0.070312-7.5234-0.082031-15.145-0.09375-22.523-0.011718-6.8711-0.023437-13.738-0.074218-20.609-0.050782-6.8359-0.25-12.984-0.61328-18.777-0.023437-0.36328-0.046875-0.66406-0.074218-0.93359-0.22266 0.12109-0.47656 0.26172-0.75781 0.43359-6.6836 3.9414-14.129 5.9375-22.145 5.9375l-0.63672-0.003906c-18.621-0.23438-33.758-15.777-33.746-34.637 0.011719-18.836 15.191-34.328 33.84-34.539l0.55469-0.003906c8.1328 0 15.699 2.0781 22.504 6.1719 0.13281 0.082031 0.26172 0.15234 0.37891 0.22266 0.023437-0.16797 0.039063-0.35156 0.0625-0.54688 0.28125-2.7305 0.57812-5.9023 0.59375-8.9531 0.050781-15.312 0.046875-30.887 0.046875-45.949l-0.003906-7.4102h-0.63672c-4.4492 0-8.9023 0-13.352 0.003907-11.773 0.003906-23.543 0.023437-35.316-0.039063-5.8164-0.027344-10.527-0.26172-14.828-0.73438-4.75-0.51953-7.9727-2.2578-9.5781-5.1562-1.6406-2.9883-1.3359-6.832 0.92188-11.426 1.7539-3.5938 3.8867-8.3359 4.6836-13.121 1.6992-10.137-1.75-18.082-10.25-23.625-8.3945-5.4727-17.102-5.4609-25.457 0.039063-8.5156 5.6055-11.934 13.562-10.156 23.641 0.82422 4.6562 2.957 9.3867 4.8945 13.453 2.0312 4.2656 2.3086 7.8789 0.82812 10.746-1.4297 2.7773-4.3398 4.5625-8.6328 5.3125-3.0664 0.53516-6.3984 0.82422-9.8945 0.83594-13.648 0.0625-27.527 0.0625-40.949 0.070312l-14.391 0.003907 0.003907 0.62109z"/>
  <path d="m252.96 409.72c19.176 0 34.832 15.289 34.984 34.086 0.0625 8.2773-2.0781 16.09-6.3594 23.211 3.3945 0.42188 6.6484 0.63672 9.6836 0.65234 16.734 0.058594 33.465 0.039063 50.203 0.015625h2.9297v-0.50781-13.406c-0.003906-11.66-0.015625-23.719 0.039062-35.582 0.023438-5.1094 0.24609-9.7422 0.67578-14.145 0.9375-9.6289 6.3477-11.066 9.4844-11.066 2.1758 0 4.5781 0.67188 7.3672 2.043 5.0938 2.5039 9.5898 4.0586 13.766 4.7656 1.1953 0.20313 2.4141 0.30469 3.6211 0.30469 11.715 0 22.031-9.6719 23-21.559 0.52344-6.4102-1.7227-12.852-6.1523-17.664-4.4336-4.8125-10.668-7.5781-17.121-7.5898-6.0312 0-11.613 1.5859-17.113 4.8516-2.6484 1.5742-5.1289 2.375-7.375 2.375-2.4375 0-8.2422-1.0391-9.4453-10.676-0.44922-3.5859-0.68359-7.082-0.69531-10.383-0.046875-11.797-0.050781-23.59-0.050781-35.387 0-5.9258 0-11.852-0.011719-17.781 0-0.22656 0-0.44922-0.003906-0.67578l-22.664 0.003906c-10.461 0-21.281 0-31.914 0.070313-2.7109 0.011718-5.4961 0.23828-8.2852 0.64844 0.28516 0.55859 0.58203 1.1211 0.875 1.6797 1.043 1.9609 2.125 3.9883 2.9453 6.1992 3.6094 9.6523 3.4727 19.82-0.41016 28.648-3.8203 8.6992-10.887 15.336-19.898 18.695-3.7852 1.4102-7.7344 2.1289-11.73 2.1289-18.91 0-34.418-15.328-34.562-34.172-0.0625-8.2383 2.0703-16.043 6.3477-23.199-3.4141-0.42188-6.6797-0.63672-9.6953-0.65234-10.512-0.046875-21.023-0.050781-31.535-0.050781l-21.582 0.003906v1.2031 14.25c0.003906 12.969 0.011719 26.379-0.085938 39.578-0.027343 4.1719-0.49609 8.2852-1.3945 12.234-1.0781 4.7891-4.3398 7.6484-8.7148 7.6484-1.5352 0-3.1602-0.36328-4.8398-1.0664-0.54297-0.23438-0.99609-0.48438-1.3984-0.71094-0.27344-0.15625-0.56641-0.31641-0.72266-0.375-1.4414-0.52344-2.8594-1.0977-4.2344-1.6562-3.1133-1.2656-6.0625-2.4609-9.0078-2.9648-10.062-1.7227-18.117 1.7266-23.66 10.156-5.5469 8.4414-5.5664 17.016-0.046875 25.461 4.6211 7.0859 10.926 10.68 18.703 10.68 1.5742 0 3.2148-0.14453 4.8867-0.44922 4.1172-0.73047 8.3281-2.6094 12.414-4.4141 0.67578-0.30469 1.3516-0.60547 2.0312-0.90234 2.1602-0.94531 4.0664-1.4062 5.8398-1.4062 2.6719 0 7.3867 1.0977 8.9883 8.457 0.74609 3.4297 1.1367 7.1211 1.1602 10.953 0.082031 12.703 0.082031 25.621 0.082031 38.109 0 5.5586 0 11.117 0.003906 16.676 0 0.21484 0.003906 0.43359 0.011719 0.65234l27.348 0.015625c7.2617 0 14.531-0.011719 21.793-0.039062 4.0469-0.023438 8.3711-0.22656 13.219-0.62891 0.16797-0.015624 0.32812-0.027343 0.47266-0.046874-0.0625-0.11719-0.14062-0.23828-0.22266-0.36719-4.1289-6.8828-6.207-14.531-6.1602-22.727 0.125-18.824 15.465-34.168 34.219-34.207z"/>
  <path d="m523.59 285.61c-11.75 0.003906-23.508 0.011719-35.262-0.035157-5.3828-0.027343-10.121-0.25-14.477-0.69922-4.8867-0.48828-8.1953-2.2383-9.8359-5.1914-1.668-3.0156-1.3516-6.8906 0.9375-11.52 2.4336-4.9062 3.9648-9.2227 4.7031-13.164 1.1836-6.4102-0.44141-13.078-4.4727-18.301-4.0781-5.2773-10.195-8.582-16.781-9.0586-6.8477-0.48828-13.445 1.9961-18.289 6.8711-4.4609 4.4961-6.8945 10.484-6.8359 16.84 0.046875 5.8164 1.7617 11.504 5.2266 17.391 2.1719 3.6758 2.6484 7 1.4297 9.8633-1.2305 2.9062-4.0195 4.8945-8.2852 5.9141-1.0273 0.24609-1.9648 0.39062-2.8711 0.4375-1.2031 0.058594-2.3984 0.12891-3.5938 0.21094-3.1797 0.19141-6.4766 0.39063-9.7656 0.39063h-1.3008c-9.8281 0-19.816-0.050782-29.48-0.09375-6.0625-0.027344-12.121-0.058594-18.184-0.074219-0.23438 0-0.46484-0.003907-0.69922-0.011719-0.12109 0-0.25781 0-0.38672-0.003906 0.11719 9.4375 0.14062 19.016 0.16797 28.285 0.015625 6.9297 0.035156 13.855 0.09375 20.785 0.035156 4.3477 0.24609 8.8945 0.63672 13.547 0.011719 0.16406 0.027344 0.31641 0.046875 0.46094 0.11719-0.070313 0.25-0.14453 0.39844-0.23828 6.8086-4.082 14.352-6.1484 22.422-6.1484h0.29297c18.836 0.11719 34.164 15.617 34.172 34.547 0.011719 18.945-15.273 34.492-34.066 34.637h-0.37891c-8.125 0-15.809-2.1406-22.836-6.3633-0.41406 3.1133-0.625 5.8672-0.63672 8.4062-0.0625 15.723-0.058594 31.703-0.058594 47.164v7.2578h1.168c4.4219 0 8.8438 0 13.266-0.003907 4.4219-0.003906 8.8477-0.003906 13.277-0.003906 7.2617 0 14.531 0.003906 21.789 0.039063 5.5586 0.027343 10.16 0.25781 14.496 0.72266 4.8359 0.50781 8.1016 2.25 9.707 5.168 1.6797 3.0508 1.3477 6.8477-1.0039 11.613-2.5391 5.1289-4.0078 9.293-4.6211 13.102-1.6328 10.125 1.8672 18.047 10.414 23.555 8.3125 5.3555 16.93 5.3359 25.211-0.050782 8.5508-5.5703 12.016-13.5 10.297-23.578-0.76953-4.5312-2.8008-9.1016-4.9883-13.754-1.9883-4.2461-2.25-7.6992-0.78125-10.551 1.3984-2.7344 4.2461-4.5078 8.4648-5.2891 3.0625-0.56641 6.4062-0.86328 9.918-0.87891 12.395-0.058593 24.988-0.0625 37.176-0.074219 5.8633 0 11.73 0 17.598-0.011718 0.23438 0 0.46484 0 0.70703-0.003906v-5.8086c-0.011719-16.711-0.023438-33.992-0.082032-50.984-0.003906-2.082-0.29297-4.2305-0.57812-6.0625-0.25781 0.14453-0.51953 0.30469-0.77734 0.46094-0.46094 0.28125-0.91406 0.55469-1.3867 0.80469-9.0117 4.7266-18.312 6.207-27.586 4.4141-17.078-3.2969-29.137-19.684-27.457-37.281 1.6445-17.203 16.367-30.895 33.52-31.184 8.4805-0.13281 16.434 2 23.676 6.3633 0-0.011719 0-0.027344 0.003906-0.039063 0.41406-3.5508 0.625-6.6797 0.63672-9.5508 0.058594-13.141 0.058594-26.508 0.058594-39.438v-13.812h-0.74219c-4.4766 0-8.9453 0.007812-13.41 0.011719z"/>
  <path d="m573.07 159.97c-1.4805 0-3.0391 0.12891-4.6211 0.39844-4.707 0.77734-9.4688 2.9648-14.07 5.0859-2.4023 1.1094-4.5039 1.6445-6.4336 1.6445-2.7695 0-7.6641-1.1914-9.2109-9.1719-0.58984-3.0039-0.89844-6.3398-0.93359-9.9297-0.11719-11.707-0.10547-23.199-0.0625-33.867 0.003907-3.1836 0.0625-6.3594 0.12109-9.543 0.058594-3.7227 0.12109-7.5703 0.11719-11.34 0-0.33984-0.003906-0.61719-0.011718-0.83984-0.23438-0.003906-0.51172-0.015625-0.85156-0.015625l-9.4805-0.039062c-9.9297-0.046875-19.852-0.10547-29.777-0.046875-8.0898 0.046875-15.492 0.26172-22.656 0.66016-0.10938 0.003906-0.21484 0.011719-0.31641 0.023438 0.070313 0.12109 0.15234 0.26172 0.24609 0.41406 4.125 6.8711 6.1875 14.52 6.1289 22.727-0.11719 18.812-15.629 34.125-34.574 34.137-18.953 0-34.469-15.301-34.609-34.109-0.0625-8.2617 2.0703-16.059 6.3516-23.188-3.3125-0.41406-6.4766-0.62891-9.3867-0.64062-10.965-0.046875-21.934-0.058593-32.898-0.058593h-20.527c0 1.8477 0.003907 3.6875 0.003907 5.5117 0.023437 6.6094 0.035156 12.855-0.027344 19.227-0.027344 2.457-0.050782 4.918-0.070313 7.3789-0.09375 10.273-0.1875 20.902-0.66406 31.367-0.47266 10.16-6.7148 11.258-9.375 11.258-2.2227 0-4.6484-0.66406-7.4336-2.043-4.7852-2.3633-9.4336-3.9727-13.812-4.7852-1.1953-0.22266-2.4219-0.33203-3.6523-0.33203-7.8008 0-15.527 4.5391-19.684 11.566-4.7852 8.1094-4.2773 18.211 1.3086 25.754 4.5156 6.1094 11.648 9.6094 19.57 9.6094 4.7734 0 9.6406-1.2852 14.105-3.7109 0.43359-0.23828 0.87109-0.48828 1.3008-0.74219 1.2148-0.69922 2.4805-1.4297 3.9219-2 1.4883-0.59375 2.9414-0.88672 4.3281-0.88672 4.1641 0 7.3555 2.6484 8.5273 7.0938 0.99219 3.7617 1.5039 7.4766 1.5234 11.055 0.09375 19.348 0.003906 38.68-0.085937 56.84 4.9922-0.035156 9.9883-0.046875 14.98-0.046875l14.57 0.003906c4.5039 0 9.0195-0.003906 13.527-0.039063 6.8672-0.039062 13.504-0.26172 19.734-0.66016 0.082031-0.003906 0.15625-0.003906 0.23828-0.015625-0.039063-0.070312-0.085938-0.14062-0.12891-0.21484-4.375-7.2695-6.4688-15.359-6.2305-24.062 0.5-18.199 16.031-33.004 34.613-33.004 18.648 0.027344 34.125 14.914 34.551 33.18 0.20312 8.6211-1.8711 16.613-6.1602 23.742-0.082031 0.13281-0.14453 0.25-0.21484 0.36719 0.16797 0.015625 0.35547 0.039062 0.55469 0.058594 2.9414 0.30469 5.8203 0.57812 8.6328 0.58984 11.539 0.035157 23.066 0.050781 34.602 0.050781l19.062-0.003906v-0.98047c0-4.4688 0-8.9375-0.003907-13.398-0.011718-11.668-0.015624-23.719 0.039063-35.578 0.027344-5.4883 0.25781-10 0.72266-14.191 1.0391-9.2227 6.3477-10.598 9.4219-10.598 2.125 0 4.4688 0.64063 7.168 1.9492 3.7148 1.8086 8.5977 3.9844 13.41 4.75 1.5508 0.24609 3.0664 0.36719 4.5195 0.36719 7.8789 0 14.211-3.582 18.812-10.656 5.5078-8.457 5.4961-17.023-0.023437-25.461-4.6094-7.0312-10.91-10.609-18.727-10.609z"/>
  <path d="m354.96 278.05 0.039063-3.2891-0.039063-0.039063z"/>
 </g>
</svg>
