<?xml version="1.0" encoding="UTF-8"?>
<svg width="700pt" height="700pt" version="1.1" viewBox="0 0 700 700" xmlns="http://www.w3.org/2000/svg" xmlns:xlink="http://www.w3.org/1999/xlink">
 <g>
  <path d="m126 37.305c2.6602 3.5391 5.8164 6.7031 9.3633 9.3633-3.5469 2.6602-6.7031 5.8125-9.3633 9.3594-2.6602-3.5469-5.8164-6.6992-9.3633-9.3594 3.5469-2.6602 6.7031-5.8242 9.3633-9.3633m-9.332 46.695c0 5.1523 4.1719 9.3359 9.332 9.3359s9.332-4.1836 9.332-9.3359c0-15.438 12.562-28 28-28 5.1641 0 9.3359-4.1797 9.3359-9.332 0-5.1523-4.1719-9.332-9.3359-9.332-15.438 0-28-12.562-28-28 0-5.1523-4.1719-9.3359-9.332-9.3359s-9.332 4.1836-9.332 9.3359c0 15.438-12.562 28-28 28-5.1641 0-9.3359 4.1797-9.3359 9.332 0 5.1523 4.1719 9.332 9.3359 9.332 15.438 0 28 12.562 28 28" fill-rule="evenodd"/>
  <path d="m611.33 65.332h-9.332v-9.332c0-5.1523-4.1719-9.332-9.332-9.332-5.1641 0-9.3359 4.1797-9.3359 9.332v9.332h-9.332c-5.1602 0-9.332 4.1836-9.332 9.3359 0 5.1523 4.1719 9.332 9.332 9.332h9.332v9.332c0 5.1523 4.1719 9.3359 9.3359 9.3359 5.1602 0 9.332-4.1836 9.332-9.3359v-9.332h9.332c5.1641 0 9.3359-4.1797 9.3359-9.332 0-5.1523-4.1719-9.3359-9.3359-9.3359" fill-rule="evenodd"/>
  <path d="m197.93 506.73c-3.6523-3.6484-9.5508-3.6484-13.199 0l-12.066 12.066-12.07-12.066c-3.6484-3.6484-9.5469-3.6484-13.195 0-3.6484 3.6484-3.6484 9.5469 0 13.199l12.066 12.066-12.066 12.066c-3.6484 3.6523-3.6484 9.5508 0 13.199 1.8203 1.8203 4.207 2.7344 6.5977 2.7344s4.7773-0.91406 6.5977-2.7344l12.07-12.066 12.066 12.066c1.8203 1.8203 4.2109 2.7344 6.5977 2.7344 2.3906 0 4.7812-0.91406 6.6016-2.7344 3.6484-3.6484 3.6484-9.5469 0-13.199l-12.07-12.066 12.07-12.066c3.6484-3.6523 3.6484-9.5508 0-13.199" fill-rule="evenodd"/>
  <path d="m602 448c-5.1602 0-9.332 4.1797-9.332 9.332 0 5.1523 4.1719 9.3359 9.332 9.3359s9.332-4.1836 9.332-9.3359c0-5.1523-4.1719-9.332-9.332-9.332" fill-rule="evenodd"/>
  <path d="m508.67 513.33c-5.1641 0-9.3359 4.1836-9.3359 9.3359 0 5.1523 4.1719 9.332 9.3359 9.332 5.1602 0 9.332-4.1797 9.332-9.332 0-5.1523-4.1719-9.3359-9.332-9.3359" fill-rule="evenodd"/>
  <path d="m378 280c0-10.293-8.3711-18.668-18.668-18.668-10.293 0-18.664 8.375-18.664 18.668s8.3711 18.668 18.664 18.668c10.297 0 18.668-8.375 18.668-18.668" fill-rule="evenodd"/>
  <path d="m322 280c0-20.59 16.742-37.332 37.332-37.332 20.59 0 37.336 16.742 37.336 37.332s-16.746 37.332-37.336 37.332c-20.59 0-37.332-16.742-37.332-37.332m93.332 0c0-30.883-25.113-56-56-56-30.883 0-56 25.117-56 56s25.117 56 56 56c30.887 0 56-25.117 56-56" fill-rule="evenodd"/>
  <path d="m555.33 270.67c5.1641 0 9.3359 4.1797 9.3359 9.332 0 113.22-92.113 205.33-205.34 205.33-5.1602 0-9.332-4.1797-9.332-9.332s4.1719-9.332 9.332-9.332c102.93 0 186.67-83.738 186.67-186.67 0-5.1523 4.1719-9.332 9.332-9.332m-270.66 9.332c0-41.168 33.496-74.668 74.664-74.668 41.172 0 74.668 33.5 74.668 74.668s-33.496 74.668-74.668 74.668c-41.168 0-74.664-33.5-74.664-74.668m-28 9.332c-5.1641 0-9.3359-4.1797-9.3359-9.332 0-61.758 50.242-112 112-112 5.1641 0 9.3359 4.1797 9.3359 9.332 0 5.1523-4.1719 9.3359-9.3359 9.3359-51.461 0-93.332 41.867-93.332 93.332 0 5.1523-4.1719 9.332-9.332 9.332m-37.336-46.664c-0.875 0-1.7617-0.12109-2.6484-0.39453-4.9492-1.4648-7.7656-6.6523-6.3008-11.602 13.059-44.004 36.941-70.875 79.836-89.879 4.7227-2.0898 10.223 0.046875 12.312 4.7617 2.0898 4.7109-0.039062 10.227-4.75 12.32-37.867 16.762-58.008 39.395-69.496 78.117-1.207 4.0508-4.918 6.6758-8.9531 6.6758m-46.664 37.332c0 5.1523-4.1719 9.332-9.3359 9.332-5.1602 0-9.332-4.1797-9.332-9.332 0-113.22 92.109-205.33 205.33-205.33 5.1641 0 9.3359 4.1797 9.3359 9.332s-4.1719 9.332-9.3359 9.332c-102.93 0-186.66 83.738-186.66 186.67m289.33-9.332c5.1602 0 9.332 4.1797 9.332 9.332 0 61.758-50.238 112-112 112-5.1602 0-9.332-4.1797-9.332-9.332 0-5.1523 4.1719-9.3359 9.332-9.3359 51.465 0 93.336-41.867 93.336-93.332 0-5.1523 4.1719-9.332 9.332-9.332m39.984 47.059c4.9453 1.4648 7.7656 6.6523 6.3008 11.602-13.059 44.004-36.941 70.875-79.84 89.879-1.2305 0.53906-2.5078 0.79297-3.7695 0.79297-3.582 0-7-2.0703-8.5391-5.5547-2.0898-4.7109 0.035156-10.227 4.75-12.32 37.867-16.762 58.008-39.395 69.496-78.117 1.4648-4.9297 6.6562-7.7578 11.602-6.2812m-142.65-289.73c-138.95 0-252 113.05-252 252s113.05 252 252 252c138.96 0 252-113.05 252-252s-113.04-252-252-252" fill-rule="evenodd"/>
 </g>
</svg>
