<?xml version="1.0" encoding="UTF-8"?>
<svg width="700pt" height="700pt" version="1.1" viewBox="0 0 700 700" xmlns="http://www.w3.org/2000/svg" xmlns:xlink="http://www.w3.org/1999/xlink">
 <g>
  <path d="m93.031 497.83c17.805-20.711 91.246-99.051 178.51-92.391 0 0 9.7227-73.973 61.625-126.36l-50.559-37.738-50.547-37.758c-35.051 64.961-102.82 95.578-102.82 95.578 31.457 82.004-22.145 175.15-36.793 198.22-6.293-4.4531-15.008-3.1055-19.625 3.125-4.6992 6.3438-3.3867 15.305 2.9297 20.02s15.242 3.4023 19.934-2.9414c4.6172-6.2305 3.4102-14.988-2.6523-19.758zm113.46-189.72c7.0508-9.5195 20.441-11.488 29.906-4.418 9.4766 7.0781 11.445 20.52 4.3906 30.039-7.0508 9.5117-20.43 11.488-29.906 4.4102-9.4648-7.0781-11.445-20.52-4.3906-30.031z"/>
  <path d="m381.16 247.95-133.2-99.453-21.742 29.34 133.19 99.453z"/>
  <path d="m628.06 474.64c-21.316-15.164-38.16-27.125-69.535-24.746-21.211 1.6289-33.652 12.793-45.703 23.59-3.1406 2.8086-6.3867 5.7227-9.8281 8.5156-21.691 17.578-40.285 31.035-65.371 31.035h-0.19141c-13.02-0.042969-20.273-3.4648-31.254-8.6445-4.3828-2.0664-9.3438-4.418-15.137-6.7031-53.141-20.965-103.29-15.453-162.64 17.887-31.012 17.414-76.914 33.426-119.46 10.805l-10.562 20.027c17.082 9.082 35.945 13.598 55.895 13.598 26.992 0 55.965-8.2617 85.137-24.648 53.609-30.102 96.484-35.07 143.36-16.574 5.1016 2.0117 9.5195 4.1055 13.789 6.1172 11.707 5.5195 22.777 10.754 40.793 10.789h0.26172c32.367 0 56.105-17.055 79.555-36.059 3.875-3.1406 7.3516-6.2461 10.684-9.2578 10.902-9.7734 18.797-16.852 32.367-17.875 23.273-1.8125 35.141 6.6484 54.793 20.613l1.9531 1.3906 13.039-18.508z"/>
  <path d="m564.86 0h-206.89l-100.25 135.31 133.2 99.461z"/>
 </g>
</svg>
